<?xml version="1.0" ?><!DOCTYPE svg  PUBLIC '-//W3C//DTD SVG 1.1//EN'  'http://www.w3.org/Graphics/SVG/1.1/DTD/svg11.dtd' [
	<!ENTITY stroke_color "#666666">
	<!ENTITY fill_color "#ffffff">
]><svg enable-background="new 0 0 100 100" height="55" viewBox="0 0 55 55" width="55" xmlns="http://www.w3.org/2000/svg"><path d="m27.500112 3.9311996c-.804058 0-1.609795.5278855-2.21977 1.5843317l-24.080563 41.7107847c-1.2199507 2.112892-.2222635 3.84185 2.2176379 3.842484h48.1632581c2.44117 0 3.439721-1.729592 2.21977-3.842484l-24.082695-41.7107846c-.609976-1.0564462-1.413579-1.5843318-2.217638-1.5843318zm-.0022 17.1483104a4.0270014 4.0270014 0 0 1 4.025865 4.027998 4.0270014 4.0270014 0 0 1 -4.025865 4.025866 4.0270014 4.0270014 0 0 1 -4.027998-4.025866 4.0270014 4.0270014 0 0 1  4.027998-4.027998zm-6.458871 7.531441c.566715 0 1.080265.232088 1.452126.603453l5.006745 5.008876 5.008877-5.008876c.373843-.371365.885559-.603453 1.454258-.603453 1.134918 0 2.055579.92066 2.055579 2.055579 0 .568203-.231592 1.081406-.603453 1.454258l-5.008877 5.008877 5.008877 5.008877c.372853.371861.603453.884569.603453 1.454259 0 1.133928-.919669 2.053448-2.055579 2.053448-.567707 0-1.080416-.230451-1.454258-.601321l-5.008877-5.008878-5.006745 5.008878c-.37186.37186-.887692.599188-1.456391.599188-1.132439 0-2.053447-.919519-2.053447-2.053447 0-.568202.230948-1.082397.601321-1.45426l5.008877-5.008876-5.008877-5.006745c-.370373-.370869-.599188-.884418-.599188-1.452126 0-1.134918.919173-2.057711 2.055579-2.057711z" fill="&fill_color;" stroke="&stroke_color;" stroke-linejoin="round" stroke-width="1.36470032"/></svg>